<svg xmlns="http://www.w3.org/2000/svg" width="32" height="32" viewBox="0 0 32 32" fill="none" aria-label="Mind logo">
  <!-- Brain/neural abstract: interconnected nodes suggesting a neural map -->
  <circle cx="16" cy="16" r="4" fill="#58a6ff"/>
  <circle cx="8" cy="10" r="2.5" fill="#58a6ff" fill-opacity="0.7"/>
  <circle cx="24" cy="10" r="2.5" fill="#58a6ff" fill-opacity="0.7"/>
  <circle cx="8" cy="22" r="2.5" fill="#58a6ff" fill-opacity="0.5"/>
  <circle cx="24" cy="22" r="2.5" fill="#58a6ff" fill-opacity="0.5"/>
  <circle cx="16" cy="6" r="2" fill="#58a6ff" fill-opacity="0.6"/>
  <circle cx="16" cy="26" r="2" fill="#58a6ff" fill-opacity="0.4"/>
  <line x1="16" y1="16" x2="8" y2="10" stroke="#58a6ff" stroke-width="1.5" stroke-opacity="0.6"/>
  <line x1="16" y1="16" x2="24" y2="10" stroke="#58a6ff" stroke-width="1.5" stroke-opacity="0.6"/>
  <line x1="16" y1="16" x2="8" y2="22" stroke="#58a6ff" stroke-width="1.5" stroke-opacity="0.5"/>
  <line x1="16" y1="16" x2="24" y2="22" stroke="#58a6ff" stroke-width="1.5" stroke-opacity="0.5"/>
  <line x1="16" y1="16" x2="16" y2="6" stroke="#58a6ff" stroke-width="1.2" stroke-opacity="0.4"/>
  <line x1="16" y1="16" x2="16" y2="26" stroke="#58a6ff" stroke-width="1.2" stroke-opacity="0.3"/>
  <line x1="8" y1="10" x2="16" y2="6" stroke="#58a6ff" stroke-width="1" stroke-opacity="0.3"/>
  <line x1="24" y1="10" x2="16" y2="6" stroke="#58a6ff" stroke-width="1" stroke-opacity="0.3"/>
  <line x1="8" y1="22" x2="16" y2="26" stroke="#58a6ff" stroke-width="1" stroke-opacity="0.25"/>
  <line x1="24" y1="22" x2="16" y2="26" stroke="#58a6ff" stroke-width="1" stroke-opacity="0.25"/>
</svg>